<?xml version="1.0" encoding="UTF-8"?>
<svg width="700pt" height="700pt" version="1.1" viewBox="0 0 700 700" xmlns="http://www.w3.org/2000/svg" xmlns:xlink="http://www.w3.org/1999/xlink">
 <defs>
  <symbol id="w" overflow="visible">
   <path d="m1.1875-0.078125c-0.0625 0.042969-0.13281 0.070312-0.20312 0.078125-0.0625 0.019531-0.13281 0.03125-0.20312 0.03125-0.21094 0-0.375-0.054688-0.5-0.17188-0.125-0.125-0.1875-0.28906-0.1875-0.5 0-0.20703 0.0625-0.36719 0.1875-0.48438 0.125-0.125 0.28906-0.1875 0.5-0.1875 0.070312 0 0.14062 0.011719 0.20312 0.03125 0.070313 0.011719 0.14062 0.03125 0.20312 0.0625v0.26562c-0.0625-0.039063-0.125-0.066406-0.1875-0.078125-0.0625-0.019531-0.125-0.03125-0.1875-0.03125-0.11719 0-0.21094 0.039062-0.28125 0.10938-0.0625 0.074219-0.09375 0.17969-0.09375 0.3125 0 0.13672 0.03125 0.24219 0.09375 0.3125 0.070312 0.074219 0.16406 0.10938 0.28125 0.10938 0.0625 0 0.125-0.007812 0.1875-0.03125 0.0625-0.019531 0.125-0.050781 0.1875-0.09375z"/>
  </symbol>
  <symbol id="e" overflow="visible">
   <path d="m0.85938-0.70312c-0.023437-0.007813-0.046875-0.015625-0.078125-0.015625-0.023438-0.007812-0.046875-0.015625-0.078125-0.015625-0.085937 0-0.14844 0.027344-0.1875 0.078125-0.042969 0.042969-0.0625 0.11719-0.0625 0.21875v0.4375h-0.3125v-0.96875h0.3125v0.15625c0.039063-0.0625 0.085937-0.10156 0.14062-0.125 0.050781-0.03125 0.11328-0.046875 0.1875-0.046875h0.03125 0.046875z"/>
  </symbol>
  <symbol id="b" overflow="visible">
   <path d="m1.1094-0.48438v0.09375h-0.71875c0.007813 0.074219 0.035156 0.125 0.078125 0.15625 0.039062 0.03125 0.10156 0.046875 0.1875 0.046875 0.0625 0 0.125-0.003906 0.1875-0.015625 0.070312-0.019531 0.14453-0.050781 0.21875-0.09375v0.23438c-0.074219 0.03125-0.14844 0.054688-0.21875 0.0625-0.074219 0.019531-0.14844 0.03125-0.21875 0.03125-0.17969 0-0.3125-0.039062-0.40625-0.125-0.09375-0.09375-0.14062-0.22266-0.14062-0.39062 0-0.15625 0.046875-0.27344 0.14062-0.35938 0.09375-0.09375 0.22266-0.14062 0.39062-0.14062 0.15625 0 0.27344 0.046875 0.35938 0.14062 0.09375 0.085938 0.14062 0.20312 0.14062 0.35938zm-0.3125-0.10938c0-0.050781-0.023437-0.09375-0.0625-0.125-0.03125-0.039062-0.074219-0.0625-0.125-0.0625-0.0625 0-0.11719 0.015625-0.15625 0.046875-0.03125 0.03125-0.054687 0.078125-0.0625 0.14062z"/>
  </symbol>
  <symbol id="a" overflow="visible">
   <path d="m0.57812-0.4375c-0.0625 0-0.10938 0.011719-0.14062 0.03125-0.03125 0.023438-0.046875 0.054688-0.046875 0.09375 0 0.042969 0.007813 0.074219 0.03125 0.09375 0.03125 0.023438 0.066406 0.03125 0.10938 0.03125 0.0625 0 0.10938-0.019531 0.14062-0.0625 0.039063-0.039062 0.0625-0.09375 0.0625-0.15625v-0.03125zm0.46875-0.10938v0.54688h-0.3125v-0.14062c-0.042969 0.054688-0.089844 0.09375-0.14062 0.125-0.042969 0.03125-0.10547 0.046875-0.1875 0.046875-0.09375 0-0.17188-0.03125-0.23438-0.09375s-0.09375-0.14062-0.09375-0.23438c0-0.10156 0.035156-0.17969 0.10938-0.23438 0.082031-0.0625 0.20703-0.09375 0.375-0.09375h0.17188v-0.015625c0-0.050781-0.023437-0.085937-0.0625-0.10938-0.03125-0.019531-0.089844-0.03125-0.17188-0.03125-0.0625 0-0.125 0.007812-0.1875 0.015625-0.054688 0.011719-0.10547 0.03125-0.15625 0.0625v-0.23438c0.070312-0.019531 0.14062-0.03125 0.20312-0.03125 0.0625-0.007812 0.12891-0.015625 0.20312-0.015625 0.17578 0 0.30078 0.039063 0.375 0.10938 0.070312 0.0625 0.10938 0.17188 0.10938 0.32812z"/>
  </symbol>
  <symbol id="d" overflow="visible">
   <path d="m0.48438-1.2344v0.26562h0.3125v0.21875h-0.3125v0.42188c0 0.042969 0.003906 0.074219 0.015625 0.09375 0.019531 0.011719 0.0625 0.015625 0.125 0.015625h0.15625v0.21875h-0.26562c-0.125 0-0.21484-0.023438-0.26562-0.078125-0.054688-0.050781-0.078125-0.13281-0.078125-0.25v-0.42188h-0.15625v-0.21875h0.15625v-0.26562z"/>
  </symbol>
  <symbol id="c" overflow="visible">
   <path d="m0.8125-0.82812v-0.51562h0.29688v1.3438h-0.29688v-0.14062c-0.054688 0.0625-0.10547 0.10938-0.15625 0.14062-0.042969 0.019531-0.10156 0.03125-0.17188 0.03125-0.11719 0-0.21484-0.046875-0.29688-0.14062-0.074219-0.10156-0.10938-0.22656-0.10938-0.375 0-0.14453 0.035156-0.26562 0.10938-0.35938 0.082031-0.09375 0.17969-0.14062 0.29688-0.14062 0.070313 0 0.12891 0.015625 0.17188 0.046875 0.050781 0.023438 0.10156 0.058594 0.15625 0.10938zm-0.20312 0.625c0.0625 0 0.10938-0.019531 0.14062-0.0625 0.039062-0.050781 0.0625-0.125 0.0625-0.21875s-0.023438-0.16016-0.0625-0.20312c-0.03125-0.050781-0.078125-0.078125-0.14062-0.078125-0.074219 0-0.125 0.027344-0.15625 0.078125-0.03125 0.042969-0.046875 0.10938-0.046875 0.20312s0.015625 0.16797 0.046875 0.21875c0.03125 0.042969 0.082031 0.0625 0.15625 0.0625z"/>
  </symbol>
  <symbol id="l" overflow="visible">
   <path d="m0.65625-0.20312c0.070312 0 0.125-0.019531 0.15625-0.0625 0.03125-0.050781 0.046875-0.125 0.046875-0.21875s-0.015625-0.16016-0.046875-0.20312c-0.03125-0.050781-0.085938-0.078125-0.15625-0.078125-0.0625 0-0.11719 0.027344-0.15625 0.078125-0.03125 0.042969-0.046875 0.10938-0.046875 0.20312s0.015625 0.16797 0.046875 0.21875c0.039062 0.042969 0.09375 0.0625 0.15625 0.0625zm-0.20312-0.625c0.039063-0.050781 0.085937-0.085937 0.14062-0.10938 0.050781-0.03125 0.11328-0.046875 0.1875-0.046875 0.11328 0 0.20703 0.046875 0.28125 0.14062 0.082031 0.09375 0.125 0.21484 0.125 0.35938 0 0.14844-0.042969 0.27344-0.125 0.375-0.074219 0.09375-0.16797 0.14062-0.28125 0.14062-0.074219 0-0.13672-0.015625-0.1875-0.046875-0.054688-0.03125-0.10156-0.070312-0.14062-0.125v0.14062h-0.3125v-1.3438h0.3125z"/>
  </symbol>
  <symbol id="h" overflow="visible">
   <path d="m0.015625-0.96875h0.3125l0.26562 0.65625 0.21875-0.65625h0.3125l-0.40625 1.0625c-0.042969 0.10156-0.09375 0.17578-0.15625 0.21875-0.054688 0.039062-0.12109 0.0625-0.20312 0.0625h-0.1875v-0.20312h0.09375c0.0625 0 0.10156-0.011719 0.125-0.03125 0.019531-0.011719 0.035156-0.039063 0.046875-0.078125l0.015625-0.03125z"/>
  </symbol>
  <symbol id="k" overflow="visible">
   <path d="m0.9375-0.23438h-0.51562l-0.078125 0.23438h-0.32812l0.46875-1.2812h0.39062l0.48438 1.2812h-0.32812zm-0.4375-0.23438h0.35938l-0.17188-0.51562z"/>
  </symbol>
  <symbol id="v" overflow="visible">
   <path d="m0.14062-1.3438h0.3125v1.3438h-0.3125z"/>
  </symbol>
  <symbol id="u" overflow="visible">
   <path d="m0.14062-0.96875h0.3125v0.96875h-0.3125zm0-0.375h0.3125v0.25h-0.3125z"/>
  </symbol>
  <symbol id="g" overflow="visible">
   <path d="m1.125-0.59375v0.59375h-0.3125v-0.45312c0-0.082031-0.007812-0.14062-0.015625-0.17188 0-0.03125-0.007813-0.050781-0.015625-0.0625-0.011719-0.019531-0.027344-0.035156-0.046875-0.046875-0.023437-0.007813-0.046875-0.015625-0.078125-0.015625-0.0625 0-0.11719 0.027344-0.15625 0.078125-0.03125 0.042969-0.046875 0.10938-0.046875 0.20312v0.46875h-0.3125v-0.96875h0.3125v0.14062c0.050781-0.050781 0.10156-0.085937 0.15625-0.10938 0.050781-0.03125 0.10938-0.046875 0.17188-0.046875 0.11328 0 0.19531 0.039063 0.25 0.10938 0.0625 0.0625 0.09375 0.15625 0.09375 0.28125z"/>
  </symbol>
  <symbol id="t" overflow="visible">
   <path d="m0.90625-0.9375v0.23438c-0.074219-0.03125-0.14062-0.050781-0.20312-0.0625-0.054687-0.007813-0.10938-0.015625-0.17188-0.015625-0.054688 0-0.09375 0.011719-0.125 0.03125-0.03125 0.011719-0.046875 0.03125-0.046875 0.0625 0 0.023438 0.007813 0.039062 0.03125 0.046875 0.019531 0.011719 0.0625 0.023437 0.125 0.03125l0.046875 0.015625c0.15625 0.023438 0.25781 0.054688 0.3125 0.09375 0.0625 0.042969 0.09375 0.11719 0.09375 0.21875 0 0.10547-0.042969 0.18359-0.125 0.23438-0.074219 0.050781-0.18359 0.078125-0.32812 0.078125-0.0625 0-0.13281-0.0078125-0.20312-0.015625-0.0625-0.011719-0.13281-0.023438-0.20312-0.046875v-0.23438c0.0625 0.03125 0.125 0.054687 0.1875 0.0625 0.0625 0.011719 0.12891 0.015625 0.20312 0.015625 0.050781 0 0.09375-0.003906 0.125-0.015625 0.03125-0.019531 0.046875-0.046875 0.046875-0.078125s-0.011719-0.050781-0.03125-0.0625c-0.023437-0.007812-0.0625-0.019531-0.125-0.03125h-0.046875c-0.14844-0.019531-0.24609-0.050781-0.29688-0.09375-0.054687-0.050781-0.078125-0.125-0.078125-0.21875 0-0.10156 0.03125-0.17578 0.09375-0.21875 0.070312-0.050781 0.17969-0.078125 0.32812-0.078125 0.0625 0 0.125 0.007813 0.1875 0.015625 0.0625 0 0.12891 0.011719 0.20312 0.03125z"/>
  </symbol>
  <symbol id="j" overflow="visible">
   <path d="m1.125-0.59375v0.59375h-0.3125v-0.45312c0-0.082031-0.007812-0.14062-0.015625-0.17188 0-0.03125-0.007813-0.050781-0.015625-0.0625-0.011719-0.019531-0.027344-0.035156-0.046875-0.046875-0.023437-0.007813-0.046875-0.015625-0.078125-0.015625-0.0625 0-0.11719 0.027344-0.15625 0.078125-0.03125 0.042969-0.046875 0.10938-0.046875 0.20312v0.46875h-0.3125v-1.3438h0.3125v0.51562c0.050781-0.050781 0.10156-0.085937 0.15625-0.10938 0.050781-0.03125 0.10938-0.046875 0.17188-0.046875 0.11328 0 0.19531 0.039063 0.25 0.10938 0.0625 0.0625 0.09375 0.15625 0.09375 0.28125z"/>
  </symbol>
  <symbol id="s" overflow="visible">
   <path d="m0.64062-0.71875c0.0625 0 0.10938-0.007812 0.14062-0.03125 0.03125-0.03125 0.046875-0.078125 0.046875-0.14062 0-0.050781-0.015625-0.085937-0.046875-0.10938-0.03125-0.03125-0.078125-0.046875-0.14062-0.046875h-0.14062v0.32812zm-0.14062 0.23438v0.48438h-0.34375v-1.2812h0.51562c0.16406 0 0.28516 0.03125 0.35938 0.09375 0.082031 0.054688 0.125 0.13672 0.125 0.25 0 0.09375-0.023438 0.16797-0.0625 0.21875-0.042969 0.054688-0.10547 0.089844-0.1875 0.10938 0.050781 0.011719 0.09375 0.039063 0.125 0.078125 0.039062 0.03125 0.078125 0.089844 0.10938 0.17188l0.1875 0.35938h-0.35938l-0.15625-0.3125c-0.03125-0.070312-0.0625-0.11719-0.09375-0.14062-0.03125-0.019531-0.074219-0.03125-0.125-0.03125z"/>
  </symbol>
  <symbol id="i" overflow="visible">
   <path d="m1.0469-0.8125c0.039063-0.050781 0.085937-0.09375 0.14062-0.125 0.050781-0.03125 0.10938-0.046875 0.17188-0.046875 0.11328 0 0.19531 0.039063 0.25 0.10938 0.0625 0.0625 0.09375 0.15625 0.09375 0.28125v0.59375h-0.3125v-0.5-0.015625-0.046875c0-0.0625-0.011719-0.10938-0.03125-0.14062-0.023437-0.03125-0.054687-0.046875-0.09375-0.046875-0.0625 0-0.10938 0.027344-0.14062 0.078125-0.03125 0.042969-0.046875 0.10938-0.046875 0.20312v0.46875h-0.3125v-0.5c0-0.10156-0.011719-0.17188-0.03125-0.20312-0.011719-0.03125-0.042969-0.046875-0.09375-0.046875-0.0625 0-0.10938 0.027344-0.14062 0.078125-0.03125 0.042969-0.046875 0.10938-0.046875 0.20312v0.46875h-0.3125v-0.96875h0.3125v0.14062c0.039063-0.050781 0.082031-0.085937 0.125-0.10938 0.050781-0.03125 0.10938-0.046875 0.17188-0.046875s0.11719 0.015625 0.17188 0.046875c0.050781 0.03125 0.09375 0.074219 0.125 0.125z"/>
  </symbol>
  <symbol id="r" overflow="visible">
   <path d="m0.78125-1.3438v0.20312h-0.17188c-0.042969 0-0.074219 0.011719-0.09375 0.03125-0.011719 0.011719-0.015625 0.039063-0.015625 0.078125v0.0625h0.26562v0.21875h-0.26562v0.75h-0.3125v-0.75h-0.15625v-0.21875h0.15625v-0.0625c0-0.10156 0.023438-0.17969 0.078125-0.23438 0.0625-0.050781 0.15625-0.078125 0.28125-0.078125z"/>
  </symbol>
  <symbol id="f" overflow="visible">
   <path d="m0.60938-0.76562c-0.074219 0-0.13281 0.027344-0.17188 0.078125-0.03125 0.042969-0.046875 0.10938-0.046875 0.20312s0.015625 0.16797 0.046875 0.21875c0.039062 0.042969 0.097656 0.0625 0.17188 0.0625 0.0625 0 0.10938-0.019531 0.14062-0.0625 0.039062-0.050781 0.0625-0.125 0.0625-0.21875s-0.023438-0.16016-0.0625-0.20312c-0.03125-0.050781-0.078125-0.078125-0.14062-0.078125zm0-0.21875c0.16406 0 0.29688 0.046875 0.39062 0.14062 0.09375 0.085938 0.14062 0.20312 0.14062 0.35938s-0.046875 0.28125-0.14062 0.375-0.22656 0.14062-0.39062 0.14062c-0.16797 0-0.29688-0.046875-0.39062-0.14062s-0.14062-0.21875-0.14062-0.375 0.046875-0.27344 0.14062-0.35938c0.09375-0.09375 0.22266-0.14062 0.39062-0.14062z"/>
  </symbol>
  <symbol id="q" overflow="visible">
   <path d="m0.15625-1.2812h0.375l0.46875 0.875v-0.875h0.3125v1.2812h-0.375l-0.45312-0.89062v0.89062h-0.32812z"/>
  </symbol>
  <symbol id="p" overflow="visible">
   <path d="m0.14062-0.375v-0.59375h0.3125v0.09375 0.20312 0.15625 0.17188c0 0.03125 0.003906 0.058594 0.015625 0.078125 0.019531 0.023437 0.035156 0.039063 0.046875 0.046875 0.019531 0.011719 0.046875 0.015625 0.078125 0.015625 0.0625 0 0.10938-0.023437 0.14062-0.078125 0.039063-0.050781 0.0625-0.11719 0.0625-0.20312v-0.48438h0.3125v0.96875h-0.3125v-0.14062c-0.042969 0.054688-0.089844 0.09375-0.14062 0.125-0.054688 0.03125-0.10938 0.046875-0.17188 0.046875-0.11719 0-0.20312-0.035156-0.26562-0.10938-0.054688-0.070313-0.078125-0.17188-0.078125-0.29688z"/>
  </symbol>
  <symbol id="o" overflow="visible">
   <path d="m0.15625-1.2812h0.5625c0.15625 0 0.27344 0.039062 0.35938 0.10938 0.09375 0.074219 0.14062 0.17188 0.14062 0.29688 0 0.13672-0.046875 0.24219-0.14062 0.3125-0.085937 0.074219-0.20312 0.10938-0.35938 0.10938h-0.21875v0.45312h-0.34375zm0.34375 0.23438v0.35938h0.17188c0.070313 0 0.125-0.015625 0.15625-0.046875s0.046875-0.078125 0.046875-0.14062c0-0.050781-0.015625-0.09375-0.046875-0.125s-0.085937-0.046875-0.15625-0.046875z"/>
  </symbol>
  <symbol id="n" overflow="visible">
   <path d="m0.14062-0.96875h0.3125v0.95312c0 0.125-0.03125 0.21875-0.09375 0.28125-0.0625 0.070313-0.15234 0.10938-0.26562 0.10938h-0.15625v-0.20312h0.0625c0.050781 0 0.085938-0.015625 0.10938-0.046875 0.019531-0.023438 0.03125-0.070312 0.03125-0.14062zm0-0.375h0.3125v0.25h-0.3125z"/>
  </symbol>
  <symbol id="m" overflow="visible">
   <path d="m0.92188-0.9375v0.25c-0.042969-0.03125-0.085937-0.050781-0.125-0.0625-0.042969-0.007812-0.085937-0.015625-0.125-0.015625-0.085937 0-0.15234 0.027344-0.20312 0.078125-0.054688 0.042969-0.078125 0.10938-0.078125 0.20312s0.023437 0.16797 0.078125 0.21875c0.050781 0.042969 0.11719 0.0625 0.20312 0.0625 0.050781 0 0.097656-0.003906 0.14062-0.015625 0.039062-0.007812 0.078125-0.03125 0.10938-0.0625v0.25c-0.042969 0.023438-0.089844 0.035156-0.14062 0.046875-0.054688 0.0078125-0.10547 0.015625-0.15625 0.015625-0.16797 0-0.30469-0.046875-0.40625-0.14062-0.09375-0.09375-0.14062-0.21875-0.14062-0.375s0.046875-0.27344 0.14062-0.35938c0.10156-0.09375 0.23828-0.14062 0.40625-0.14062 0.050781 0 0.10156 0.007813 0.15625 0.015625 0.050781 0 0.097656 0.011719 0.14062 0.03125z"/>
  </symbol>
 </defs>
 <g>
  <path d="m524.95 272.71c-44.18-4.5664-76.445-11.293-100.33-23.602 8.168-25.598 26.219-53.191 54.254-87.695 5.5547-6.8359-3.457-15.852-10.297-10.297-34.504 28.035-62.098 46.086-87.695 54.25-20.504-39.75-25.5-102.89-30.891-205.37-5.3906 102.48-10.383 165.63-30.891 205.37-25.594-8.1641-53.191-26.215-87.691-54.25-6.8359-5.5547-15.855 3.457-10.297 10.297 28.035 34.504 46.086 62.098 54.25 87.695-23.863 12.309-56.145 19.035-100.33 23.602-8.7656 0.91016-8.7656 13.664 0 14.57 44.184 4.5664 76.445 11.293 100.33 23.602-8.1641 25.598-26.215 53.191-54.25 87.695-5.5586 6.8359 3.457 15.852 10.297 10.297 34.5-28.035 62.098-46.086 87.691-54.25 20.504 39.75 25.48 102.89 30.891 205.37 5.3906-102.48 10.383-165.63 30.891-205.37 25.598 8.1641 53.191 26.215 87.695 54.25 6.8359 5.5547 15.852-3.457 10.297-10.297-28.035-34.504-46.086-62.098-54.254-87.695 23.867-12.309 56.148-19.035 100.33-23.602 8.7773-0.90625 8.7773-13.66 0-14.57z"/>
  <use x="168.46875" y="565.308594" xlink:href="#w"/>
  <use x="169.769531" y="565.308594" xlink:href="#e"/>
  <use x="170.640625" y="565.308594" xlink:href="#b"/>
  <use x="171.839844" y="565.308594" xlink:href="#a"/>
  <use x="173.035156" y="565.308594" xlink:href="#d"/>
  <use x="173.878906" y="565.308594" xlink:href="#b"/>
  <use x="175.082031" y="565.308594" xlink:href="#c"/>
  <use x="176.964844" y="565.308594" xlink:href="#l"/>
  <use x="178.230469" y="565.308594" xlink:href="#h"/>
  <use x="180" y="565.308594" xlink:href="#k"/>
  <use x="181.371094" y="565.308594" xlink:href="#v"/>
  <use x="181.976562" y="565.308594" xlink:href="#c"/>
  <use x="183.242188" y="565.308594" xlink:href="#u"/>
  <use x="183.847656" y="565.308594" xlink:href="#h"/>
  <use x="185.003906" y="565.308594" xlink:href="#a"/>
  <use x="186.195312" y="565.308594" xlink:href="#g"/>
  <use x="187.457031" y="565.308594" xlink:href="#t"/>
  <use x="188.511719" y="565.308594" xlink:href="#a"/>
  <use x="189.703125" y="565.308594" xlink:href="#j"/>
  <use x="191.578125" y="565.308594" xlink:href="#s"/>
  <use x="192.941406" y="565.308594" xlink:href="#a"/>
  <use x="194.136719" y="565.308594" xlink:href="#i"/>
  <use x="195.980469" y="565.308594" xlink:href="#a"/>
  <use x="197.175781" y="565.308594" xlink:href="#c"/>
  <use x="198.441406" y="565.308594" xlink:href="#a"/>
  <use x="199.636719" y="565.308594" xlink:href="#g"/>
  <use x="168.46875" y="567.078125" xlink:href="#r"/>
  <use x="169.238281" y="567.078125" xlink:href="#e"/>
  <use x="170.113281" y="567.078125" xlink:href="#f"/>
  <use x="171.328125" y="567.078125" xlink:href="#i"/>
  <use x="173.789062" y="567.078125" xlink:href="#d"/>
  <use x="174.632812" y="567.078125" xlink:href="#j"/>
  <use x="175.894531" y="567.078125" xlink:href="#b"/>
  <use x="177.710938" y="567.078125" xlink:href="#q"/>
  <use x="179.191406" y="567.078125" xlink:href="#f"/>
  <use x="180.40625" y="567.078125" xlink:href="#p"/>
  <use x="181.664063" y="567.078125" xlink:href="#g"/>
  <use x="183.542969" y="567.078125" xlink:href="#o"/>
  <use x="184.839844" y="567.078125" xlink:href="#e"/>
  <use x="185.710938" y="567.078125" xlink:href="#f"/>
  <use x="186.925781" y="567.078125" xlink:href="#n"/>
  <use x="187.535156" y="567.078125" xlink:href="#b"/>
  <use x="188.734375" y="567.078125" xlink:href="#m"/>
  <use x="189.78125" y="567.078125" xlink:href="#d"/>
 </g>
</svg>
